<svg width="73" height="50" fill="none" xmlns="http://www.w3.org/2000/svg"><path fill-rule="evenodd" clip-rule="evenodd" d="M11.598 44.806c9.185 0 10.916-8.076 10.916-14.542h13.645C57.549 30.264 57.555 0 36.84 0c-5.634 0-9.263 3.416-10.234 4.605-11.557 0-12.962 6.039-12.962 17.764v10.748c0 2.757-1.108 4.546-4.094 4.546-2.55 0-3.757-2.258-4.776-5.426-.53.285-4.258 2.301-4.775 2.632 1.128 3.165 2.335 9.937 11.598 9.937zm12.986-27.043c3.5 0 3.797 5.264-.248 5.264-3.409 0-3.32-5.264.248-5.264zm12.258 15.772c-2.958 0-11.599-.64-11.599-.64v16.226l8.187.117 2.047-11.737 25.925-.488.683 12.87 9.551.117S73 24.794 73 19.737c0-9.38-4.197-14.688-13.645-15.132-2.367-.11-5.465-.552-7.505-.658 8.892 10.82 1.817 29.588-15.008 29.588zm16.374 6.58l.681 9.534 5.458.117-.682-9.651h-5.457zm-17.057 9.241l5.458.117 1.364-9.358h-4.776l-2.046 9.241z" fill="#FF862F"/></svg>